# xmcd
#
# Track frame offsets:
#	150
#	17760
#	38315
#	55335
#	68195
#	92440
#	115892
#	132792
#	152135
#	173620
#	190020
#
# Disc length: 2908 seconds
# Revision: 6
# Processed by: cddbd v1.5.2PL0 Copyright (c) Steve Scherf et al.
# Submitted via: dBpowerAMP V12.0
#
DISCID=7f0b5a0b
DTITLE=Various Artist - Rhythm Country and Blues
DYEAR=1994
DGENRE=Country
TTITLE0=Gladys Knight and Vince Gill - Ain't Nothing Like The Real Thing
TTITLE1=Lyle Lovett and Al Green - Funny How Time Slips Away
TTITLE2=Trisha Yearwood and Aaron Neville - I Fall To Pieces
TTITLE3=Little Richard and Tanya Tucker - Somethin Else
TTITLE4=Travis Tritt and Patti LaBelle - When Something Is Wrong With My Baby
TTITLE5=Conway Twitty and Sam Moore - Rainy Night In Georgia
TTITLE6=Clint Black and Pointer Sisters The - Chain Of Fools
TTITLE7=Reba McEntire and Natalie Cole - Since I Fell For You
TTITLE8=Chet Atkins and Allen Toussaint - Southern Nights
TTITLE9=Marty Stuart and Staple Singers The - Weight
TTITLE10=George Jones and BB King - Patches
EXTD=
EXTT0=
EXTT1=
EXTT2=
EXTT3=
EXTT4=
EXTT5=
EXTT6=
EXTT7=
EXTT8=
EXTT9=
EXTT10=
PLAYORDER=
